<svg width="84" height="18" viewBox="0 0 84 18" fill="none" xmlns="http://www.w3.org/2000/svg">
<path d="M9.22328 2.63475C9.55298 2.76607 9.87444 3.06156 10.1876 3.5212C10.5173 3.98085 10.7564 4.42408 10.9047 4.85089L3.75855 10.0219L10.9047 15.4145C10.7564 15.8249 10.5173 16.2681 10.1876 16.7442C9.87444 17.2038 9.55298 17.4993 9.22328 17.6306L0 10.6867V9.38167L9.22328 2.63475Z" fill="#ffff"/>
<path d="M14.2901 17.606C14.1087 17.409 13.9686 17.171 13.8697 16.8919C13.7708 16.6129 13.7213 16.3256 13.7213 16.0301C14.2818 16.0301 14.6775 15.9398 14.9082 15.7592C15.139 15.5787 15.2544 15.2585 15.2544 14.7989V3.22572C15.2544 2.76607 15.139 2.44596 14.9082 2.26539C14.6775 2.0684 14.2818 1.9699 13.7213 1.9699C13.7213 1.67442 13.7708 1.39535 13.8697 1.13269C13.9686 0.853625 14.1087 0.615595 14.2901 0.418605H20.3977C20.7604 0.79617 20.9417 1.31327 20.9417 1.9699C20.3812 1.9699 19.9691 2.0684 19.7053 2.26539C19.4416 2.46238 19.3097 2.78249 19.3097 3.22572V15.513H20.2246C21.428 15.513 22.3182 15.119 22.8952 14.3311C23.4886 13.5431 23.7853 12.435 23.7853 11.0068H25.5163C25.7965 11.2202 26.019 11.6799 26.1839 12.3858C26.3487 13.0917 26.4312 13.7811 26.4312 14.4542C26.4312 15.4884 26.2498 16.2763 25.8872 16.8181C25.5245 17.3434 24.931 17.606 24.1068 17.606H14.2901Z" fill="#ffff"/>
<path d="M41.1713 12.4104C41.1713 12.9521 41.0395 13.9207 40.7757 15.316C40.512 16.6949 40.2729 17.5896 40.0586 18C39.7949 17.9343 39.4487 17.803 39.0201 17.606H27.5713C27.1922 17.1135 27.0026 16.5964 27.0026 16.0547C27.5631 16.0547 27.9752 15.9562 28.239 15.7592C28.5027 15.5622 28.6346 15.2339 28.6346 14.7743V3.22572C28.6346 2.78249 28.5027 2.46238 28.239 2.26539C27.9917 2.0684 27.5878 1.9699 27.0273 1.9699C27.0273 1.42818 27.2169 0.911081 27.5961 0.418605H37.1903C37.4705 0.287278 37.792 0.188782 38.1546 0.123119C38.5338 0.0410396 38.88 0 39.1932 0C39.4404 0.47606 39.7042 1.13269 39.9844 1.9699C40.2812 2.80711 40.4295 3.4145 40.4295 3.79207C40.2317 3.97264 39.8938 4.16142 39.4157 4.35841C38.9376 4.5554 38.5255 4.68673 38.1793 4.75239C37.965 4.14501 37.6271 3.6197 37.1655 3.17647C36.7039 2.73324 36.1682 2.51163 35.5583 2.51163H32.7641V7.70725H34.5444C35.6159 7.70725 36.1517 7.10807 36.1517 5.90971C36.8935 5.90971 37.5612 6.08208 38.1546 6.42681V11.0068C37.8909 11.171 37.5859 11.3023 37.2397 11.4008C36.8935 11.4829 36.5391 11.5239 36.1764 11.5239C36.1764 10.9001 36.0281 10.4323 35.7313 10.1204C35.4346 9.80848 35.0472 9.65253 34.5692 9.65253H32.7641V15.4391H35.7561C36.4484 15.4391 37.0501 15.1518 37.5612 14.5773C38.0722 13.9863 38.3936 13.264 38.5255 12.4104H41.1713Z" fill="#ffff"/>
<path d="M56.4586 14.3557C56.6235 14.881 56.9037 15.2914 57.2993 15.5869C57.695 15.8824 58.1153 16.0301 58.5604 16.0301C58.5604 16.3256 58.511 16.6129 58.4121 16.8919C58.3132 17.171 58.173 17.409 57.9917 17.606H51.2906C51.1093 17.409 50.9692 17.171 50.8702 16.8919C50.7713 16.6129 50.7219 16.3256 50.7219 16.0301C51.6615 16.0301 52.1313 15.6361 52.1313 14.8482C52.1313 14.5198 52.0736 14.1341 51.9582 13.6908L51.8099 13.1737H46.271L46.1226 13.6908C45.9742 14.1997 45.9001 14.5609 45.9001 14.7743C45.9001 15.6115 46.4276 16.0301 47.4826 16.0301C47.4826 16.3256 47.4332 16.6129 47.3342 16.8919C47.2353 17.171 47.0952 17.409 46.9139 17.606H41.3997C41.2184 17.409 41.0782 17.171 40.9793 16.8919C40.8804 16.6129 40.831 16.3256 40.831 16.0301C41.2925 16.0301 41.7129 15.8988 42.0921 15.6361C42.4712 15.357 42.7514 14.9549 42.9328 14.4295L46.9881 2.51163C46.3287 2.29822 45.4962 2.19152 44.4906 2.19152C44.4906 1.48564 44.6884 0.894665 45.0841 0.418605H51.8593L56.4586 14.3557ZM51.2659 11.2531L49.5102 5.14637C49.3619 4.6539 49.1723 4.23529 48.9415 3.89056L46.815 11.2531H51.2659Z" fill="#ffff"/>
<path d="M58.5529 17.606C58.3716 17.409 58.2314 17.171 58.1325 16.8919C58.0336 16.6129 57.9842 16.3256 57.9842 16.0301C58.5447 16.0301 58.9403 15.9398 59.1711 15.7592C59.4019 15.5787 59.5173 15.2585 59.5173 14.7989V3.22572C59.5173 2.76607 59.4019 2.44596 59.1711 2.26539C58.9403 2.0684 58.5447 1.9699 57.9842 1.9699C57.9842 1.67442 58.0336 1.39535 58.1325 1.13269C58.2314 0.853625 58.3716 0.615595 58.5529 0.418605H64.6605C65.0232 0.79617 65.2046 1.31327 65.2046 1.9699C64.6441 1.9699 64.2319 2.0684 63.9682 2.26539C63.7044 2.46238 63.5725 2.78249 63.5725 3.22572V15.513H64.4875C65.6908 15.513 66.581 15.119 67.158 14.3311C67.7515 13.5431 68.0482 12.435 68.0482 11.0068H69.7791C70.0593 11.2202 70.2819 11.6799 70.4467 12.3858C70.6116 13.0917 70.694 13.7811 70.694 14.4542C70.694 15.4884 70.5127 16.2763 70.15 16.8181C69.7873 17.3434 69.1939 17.606 68.3696 17.606H58.5529Z" fill="#ffff"/>
<path d="M84 10.6867L74.7767 17.6306C74.447 17.4993 74.1173 17.2038 73.7876 16.7442C73.4744 16.2681 73.2436 15.8249 73.0953 15.4145L80.2415 10.0219L73.0953 4.85089C73.2436 4.42408 73.4744 3.98085 73.7876 3.5212C74.1173 3.06156 74.447 2.76607 74.7767 2.63475L84 9.38167V10.6867Z" fill="#ffff"/>
</svg>
